GIL03_free4_ik
nRows=3
nColumns=375

# SIMM Motion File Header:
name GIL03_free4_ik
datacolumns 375
datarows 3
otherdata 1
range 0.13333000 0.15000000
endheader
time	pelvis_tx	pelvis_ty	pelvis_tz	pelvis_tilt	pelvis_list	pelvis_rotation	hip_flexion_r	hip_adduction_r	hip_rotation_r	knee_angle_r	ankle_angle_r	hip_flexion_l	hip_adduction_l	hip_rotation_l	knee_angle_l	ankle_angle_l	lumbar_extension	lumbar_bending	lumbar_rotation	subtalar_angle_r	mtp_angle_r	subtalar_angle_l	mtp_angle_l	asis_r_px	asis_r_py	asis_r_pz	asis_l_px	asis_l_py	asis_l_pz	midasis_px	midasis_py	midasis_pz	psis_r_px	psis_r_py	psis_r_pz	psis_l_px	psis_l_py	psis_l_pz	hip_r_px	hip_r_py	hip_r_pz	hip_l_px	hip_l_py	hip_l_pz	midhip_px	midhip_py	midhip_pz	epicondLat_r_px	epicondLat_r_py	epicondLat_r_pz	epicondMed_r_px	epicondMed_r_py	epicondMed_r_pz	thighwand_r_px	thighwand_r_py	thighwand_r_pz	upperleg1_r_px	upperleg1_r_py	upperleg1_r_pz	upperleg2_r_px	upperleg2_r_py	upperleg2_r_pz	malleolusLat_r_px	malleolusLat_r_py	malleolusLat_r_pz	malleolusMedv_r_px	malleolusMedv_r_py	malleolusMedv_r_pz	shankwand_r_px	shankwand_r_py	shankwand_r_pz	lowerleg1_r_px	lowerleg1_r_py	lowerleg1_r_pz	knee_r_px	knee_r_py	knee_r_pz	ankle_r_px	ankle_r_py	ankle_r_pz	toe_r_px	toe_r_py	toe_r_pz	epicondLat_l_px	epicondLat_l_py	epicondLat_l_pz	epicondMed_l_px	epicondMed_l_py	epicondMed_l_pz	thighwand_l_px	thighwand_l_py	thighwand_l_pz	upperleg1_l_px	upperleg1_l_py	upperleg1_l_pz	upperleg2_l_px	upperleg2_l_py	upperleg2_l_pz	malleolusLat_l_px	malleolusLat_l_py	malleolusLat_l_pz	malleolusMedv_l_px	malleolusMedv_l_py	malleolusMedv_l_pz	shankwand_l_px	shankwand_l_py	shankwand_l_pz	lowerleg1_l_px	lowerleg1_l_py	lowerleg1_l_pz	knee_l_px	knee_l_py	knee_l_pz	ankle_l_px	ankle_l_py	ankle_l_pz	toe_l_px	toe_l_py	toe_l_pz	subclavicle_r_px	subclavicle_r_py	subclavicle_r_pz	subclavicle_l_px	subclavicle_l_py	subclavicle_l_pz	neck_px	neck_py	neck_pz	sternalnotch_px	sternalnotch_py	sternalnotch_pz	xyphoidprocess_px	xyphoidprocess_py	xyphoidprocess_pz	midhip_tx	midhip_ty	midhip_tz	hip_r_tx	hip_r_ty	hip_r_tz	hip_l_tx	hip_l_ty	hip_l_tz	knee_r_tx	knee_r_ty	knee_r_tz	knee_l_tx	knee_l_ty	knee_l_tz	ankle_r_tx	ankle_r_ty	ankle_r_tz	ankle_l_tx	ankle_l_ty	ankle_l_tz	midasis_tx	midasis_ty	midasis_tz	asis_r_tx	asis_r_ty	asis_r_tz	asis_l_tx	asis_l_ty	asis_l_tz	psis_r_tx	psis_r_ty	psis_r_tz	psis_l_tx	psis_l_ty	psis_l_tz	epicondLat_r_tx	epicondLat_r_ty	epicondLat_r_tz	epicondLat_l_tx	epicondLat_l_ty	epicondLat_l_tz	epicondMed_r_tx	epicondMed_r_ty	epicondMed_r_tz	epicondMed_l_tx	epicondMed_l_ty	epicondMed_l_tz	malleolusLat_r_tx	malleolusLat_r_ty	malleolusLat_r_tz	malleolusLat_l_tx	malleolusLat_l_ty	malleolusLat_l_tz	malleolusMedv_r_tx	malleolusMedv_r_ty	malleolusMedv_r_tz	malleolusMedv_l_tx	malleolusMedv_l_ty	malleolusMedv_l_tz	neck_tx	neck_ty	neck_tz	subclavicle_r_tx	subclavicle_r_ty	subclavicle_r_tz	subclavicle_l_tx	subclavicle_l_ty	subclavicle_l_tz	sternalnotch_tx	sternalnotch_ty	sternalnotch_tz	xyphoidprocess_tx	xyphoidprocess_ty	xyphoidprocess_tz	thighwand_r_tx	thighwand_r_ty	thighwand_r_tz	thighwand_l_tx	thighwand_l_ty	thighwand_l_tz	upperleg1_r_tx	upperleg1_r_ty	upperleg1_r_tz	upperleg1_l_tx	upperleg1_l_ty	upperleg1_l_tz	upperleg2_r_tx	upperleg2_r_ty	upperleg2_r_tz	upperleg2_l_tx	upperleg2_l_ty	upperleg2_l_tz	shankwand_r_tx	shankwand_r_ty	shankwand_r_tz	shankwand_l_tx	shankwand_l_ty	shankwand_l_tz	lowerleg1_r_tx	lowerleg1_r_ty	lowerleg1_r_tz	lowerleg1_l_tx	lowerleg1_l_ty	lowerleg1_l_tz	toe_r_tx	toe_r_ty	toe_r_tz	toe_l_tx	toe_l_ty	toe_l_tz	ground_force_vx	ground_force_vy	ground_force_vz	ground_force_px	ground_force_py	ground_force_pz	ground_force_vx	ground_force_vy	ground_force_vz	ground_force_px	ground_force_py	ground_force_pz	ground_torque_x	ground_torque_y	ground_torque_z	ground_torque_x	ground_torque_y	ground_torque_z	ground_marker_px	ground_marker_py	ground_marker_pz	ground_marker_px	ground_marker_py	ground_marker_pz	ground_marker_px	ground_marker_py	ground_marker_pz	ground_marker_px	ground_marker_py	ground_marker_pz	ground_marker_px	ground_marker_py	ground_marker_pz	ground_marker_px	ground_marker_py	ground_marker_pz	ground_marker_px	ground_marker_py	ground_marker_pz	ground_marker_px	ground_marker_py	ground_marker_pz	ground_marker_px	ground_marker_py	ground_marker_pz	ground_marker_px	ground_marker_py	ground_marker_pz	ground_marker_px	ground_marker_py	ground_marker_pz	ground_marker_px	ground_marker_py	ground_marker_pz	ground_marker_px	ground_marker_py	ground_marker_pz	ground_marker_px	ground_marker_py	ground_marker_pz	ground_marker_px	ground_marker_py	ground_marker_pz	ground_marker_px	ground_marker_py	ground_marker_pz	ground_marker_px	ground_marker_py	ground_marker_pz	ground_marker_px	ground_marker_py	ground_marker_pz	ground_marker_px	ground_marker_py	ground_marker_pz	ground_marker_px	ground_marker_py	ground_marker_pz	ground_marker_px	ground_marker_py	ground_marker_pz	ground_marker_px	ground_marker_py	ground_marker_pz	ground_marker_px	ground_marker_py	ground_marker_pz	ground_marker_px	ground_marker_py	ground_marker_pz	ground_marker_px	ground_marker_py	ground_marker_pz	ground_marker_px	ground_marker_py	ground_marker_pz	ground_marker_px	ground_marker_py	ground_marker_pz	ground_marker_px	ground_marker_py	ground_marker_pz	ground_marker_px	ground_marker_py	ground_marker_pz	ground_marker_px	ground_marker_py	ground_marker_pz	ground_marker_px	ground_marker_py	ground_marker_pz	ground_marker_px	ground_marker_py	ground_marker_pz	ground_marker_px	ground_marker_py	ground_marker_pz	ground_marker_px	ground_marker_py	ground_marker_pz	ground_marker_px	ground_marker_py	ground_marker_pz	ground_marker_px	ground_marker_py	ground_marker_pz	ground_marker_px	ground_marker_py	ground_marker_pz
      0.13333000	      0.02678538	      0.85798452	     -0.24289079	      4.56589858	     -3.42499626	      5.58798523	     20.33709394	      3.71775965	      3.19656631	    -24.54116505	      1.62469299	     -7.24260059	    -12.23118082	     -6.28869313	    -50.57503816	     -9.28860696	    -15.90441465	      7.86157063	     -0.85994501	      0.00000000	      0.00000000	      0.00000000	      0.00000000	      0.16014870	      0.87471135	     -0.17556889	      0.11882554	      0.85369750	     -0.37187781	      0.03773693	      0.85879471	     -0.24396327	     -0.00478529	      0.91662549	     -0.22377096	     -0.01634630	      0.91161774	     -0.27721228	     -0.01830412	      0.80646670	     -0.16898392	     -0.03045654	      0.79764565	     -0.29974110	     -0.02438033	      0.80205618	     -0.23436251	      0.22263961	      0.48796062	     -0.13925500	      0.18029471	      0.46612990	     -0.23788919	      0.27364740	      0.68297940	     -0.23401569	      0.20052082	      0.71245616	     -0.17057262	      0.21997018	      0.62878481	     -0.16569485	      0.15320772	      0.05690770	     -0.12764574	      0.17465713	      0.06545573	     -0.19740339	      0.17460935	      0.18140172	     -0.06304793	      0.17232173	      0.18603526	     -0.10507573	      0.13678393	      0.46413153	     -0.18484732	      0.13821461	      0.06524237	     -0.17248085	      0.27535719	      0.02968546	     -0.13784600	     -0.00924827	      0.42806269	     -0.43876546	     -0.00295455	      0.39949979	     -0.33344032	      0.15032331	      0.56225087	     -0.37875489	      0.07586354	      0.62227816	     -0.41159844	      0.06350201	      0.53526987	     -0.41766624	     -0.38568420	      0.17871530	     -0.38914717	     -0.34990482	      0.15107518	     -0.33841638	     -0.32240194	      0.28988440	     -0.43972893	     -0.30009233	      0.27023437	     -0.40829428	     -0.05204912	      0.42126679	     -0.35390030	     -0.37054043	      0.18207973	     -0.32899283	     -0.36836193	      0.05595014	     -0.41968665	      0.05695123	      1.27505741	     -0.16513642	      0.05479602	      1.27992281	     -0.27422215	     -0.05416535	      1.31124109	     -0.21164308	      0.03905276	      1.28373594	     -0.22429160	      0.14428362	      1.14392435	     -0.23135884	     -0.01641900	      0.80960400	     -0.22868000	     -0.00367100	      0.79608200	     -0.16798400	     -0.02566800	      0.78749800	     -0.28305900	      0.14861300	      0.45299700	     -0.18386200	     -0.05072900	      0.42133600	     -0.33820500	      0.14264800	      0.06278200	     -0.18918800	     -0.37619600	      0.18220000	     -0.32970600	      0.04105700	      0.87407300	     -0.23622900	      0.05142600	      0.87988800	     -0.13757700	      0.03068900	      0.86825700	     -0.33488100	     -0.11526300	      0.89749600	     -0.19230500	     -0.12124100	      0.89565600	     -0.24690700	      0.16362000	      0.45721700	     -0.13111800	     -0.05256300	      0.42957100	     -0.39204800	      0.13891900	      0.44565600	     -0.22689400	     -0.04345800	      0.40121800	     -0.29365400	      0.13918900	      0.06231100	     -0.15084700	     -0.37785900	      0.18309800	     -0.36815900	      0.16427900	      0.07389400	     -0.21940800	     -0.35499600	      0.17961400	     -0.30683100	     -0.04857300	      1.31307700	     -0.21154600	      0.04778300	      1.23009600	     -0.16801300	      0.04149200	      1.23394600	     -0.27606500	      0.03026600	      1.24469600	     -0.22607900	      0.07019300	      1.07362900	     -0.23331200	      0.20594900	      0.67048100	     -0.19482800	      0.10067200	      0.57778200	     -0.32638100	      0.12952700	      0.68264200	     -0.13062700	      0.02356400	      0.62878300	     -0.36743700	      0.15774300	      0.60187400	     -0.13498100	      0.01855900	      0.54143000	     -0.37335100	      0.14762100	      0.17920900	     -0.08005100	     -0.31046200	      0.28865300	     -0.43072400	      0.14738300	      0.18645700	     -0.12220000	     -0.29712500	      0.28028400	     -0.39186500	      0.25814700	      0.04027000	     -0.15309800	     -0.34455200	      0.06334100	     -0.33072600	    -84.37948413	    489.59959938	    -10.28735138	      0.15943430	      0.00000000	     -0.17967406	      0.00000000	      0.00000000	      0.00000000	      0.56659845	      0.00000000	     -0.29025311	      0.00000000	     -0.68591058	      0.00000000	      0.00000000	      0.00000000	      0.00000000	     -0.01641910	      0.80960429	     -0.22868046	     -0.00367084	      0.79608244	     -0.16798446	     -0.02566768	      0.78749841	     -0.28305867	      0.14861284	      0.45299697	     -0.18386213	     -0.05072892	      0.42133641	     -0.33820519	      0.14264819	      0.06278186	     -0.18918797	     -0.37619558	      0.18220003	     -0.32970580	      0.04105748	      0.87407255	     -0.23622879	      0.05142613	      0.87988770	     -0.13757658	      0.03068883	      0.86825746	     -0.33488101	     -0.11526302	      0.89749593	     -0.19230488	     -0.12124082	      0.89565647	     -0.24690694	      0.16362002	      0.45721719	     -0.13111772	     -0.05256271	      0.42957106	     -0.39204827	      0.13891941	      0.44565600	     -0.22689387	     -0.04345771	      0.40121809	     -0.29365441	      0.13918853	      0.06231144	     -0.15084662	     -0.37785929	      0.18309760	     -0.36815938	      0.16427886	      0.07389393	     -0.21940848	     -0.35499626	      0.17961431	     -0.30683103	     -0.04857299	      1.31307745	     -0.21154596	      0.04778350	      1.23009574	     -0.16801320	      0.04149242	      1.23394644	     -0.27606490	      0.03026574	      1.24469638	     -0.22607912	      0.07019269	      1.07362890	     -0.23331225	      0.20594940	      0.67048061	     -0.19482841	      0.10067212	      0.57778221	     -0.32638055	      0.12952694	      0.68264228	     -0.13062653	      0.02356403	      0.62878281	     -0.36743727	      0.15774266	      0.60187417	     -0.13498065	      0.01855945	      0.54143000	     -0.37335145	      0.14762117	      0.17920931	     -0.08005051	     -0.31046176	      0.28865340	     -0.43072358	      0.14738294	      0.18645677	     -0.12219951	     -0.29712465	      0.28028354	     -0.39186510	      0.25814697	      0.04027001	     -0.15309758	     -0.34455186	      0.06334089	     -0.33072594
      0.14167000	      0.03658870	      0.85974134	     -0.24224120	      4.60125877	     -3.52339090	      5.58204195	     19.66444600	      3.95486727	      2.84660357	    -24.64499575	      2.29729056	     -5.75589353	    -12.44454016	     -5.73476218	    -52.98297270	     -9.33701189	    -16.04626486	      7.96330338	     -0.64051641	      0.00000000	      0.00000000	      0.00000000	      0.00000000	      0.16992534	      0.87666600	     -0.17491590	      0.12866259	      0.85529201	     -0.37119865	      0.04754000	      0.86055654	     -0.24331243	      0.00497688	      0.91839510	     -0.22322888	     -0.00656813	      0.91328911	     -0.27666436	     -0.00848649	      0.80832139	     -0.16825749	     -0.02060190	      0.79927004	     -0.29900237	     -0.01454420	      0.80379571	     -0.23362993	      0.22854678	      0.48690110	     -0.13845750	      0.18643547	      0.46590785	     -0.23737311	      0.28231060	      0.68162883	     -0.23228858	      0.20922337	      0.71174727	     -0.16910206	      0.22766349	      0.62783656	     -0.16442018	      0.15328626	      0.05664993	     -0.12856843	      0.17519712	      0.06512343	     -0.19819163	      0.17604934	      0.18064071	     -0.06347009	      0.17403433	      0.18543562	     -0.10549374	      0.14266403	      0.46423505	     -0.18455549	      0.13863120	      0.06532659	     -0.17345041	      0.27547017	      0.02936693	     -0.13803918	      0.01085852	      0.43088067	     -0.43924732	      0.01699904	      0.40206146	     -0.33398297	      0.16657365	      0.56872371	     -0.37741755	      0.09092348	      0.62702658	     -0.41064493	      0.08076458	      0.53976475	     -0.41714399	     -0.36969232	      0.18486753	     -0.38981041	     -0.33445667	      0.15685631	     -0.33890289	     -0.30453327	      0.29480083	     -0.44070929	     -0.28260127	      0.27491895	     -0.40915492	     -0.03225657	      0.42215044	     -0.35488387	     -0.35460719	      0.18822649	     -0.32964103	     -0.35440248	      0.06168970	     -0.41979194	      0.06757233	      1.27652177	     -0.16473248	      0.06510160	      1.28145621	     -0.27380841	     -0.04361767	      1.31292988	     -0.21088716	      0.04951356	      1.28526734	     -0.22382903	      0.15447508	      1.14527396	     -0.23129193	     -0.00671900	      0.81086800	     -0.22744300	      0.00636600	      0.79768100	     -0.16673300	     -0.01577300	      0.78883100	     -0.28176000	      0.15448000	      0.45313300	     -0.18330900	     -0.03130400	      0.42183000	     -0.33801700	      0.14328200	      0.06291800	     -0.18930500	     -0.36036000	      0.18922500	     -0.33248400	      0.05095000	      0.87555500	     -0.23520400	      0.06144900	      0.88159500	     -0.13651400	      0.04045100	      0.86951400	     -0.33389500	     -0.10533300	      0.89905700	     -0.19128400	     -0.11146800	      0.89689100	     -0.24587400	      0.16936700	      0.45699200	     -0.13050300	     -0.03301800	      0.43015500	     -0.39185000	      0.14512800	      0.44627200	     -0.22672200	     -0.02493400	      0.40189500	     -0.29240000	      0.13927800	      0.06244400	     -0.15101600	     -0.36102000	      0.18924300	     -0.37097800	      0.16444800	      0.07386800	     -0.21951600	     -0.33930300	      0.18540500	     -0.30926900	     -0.03803000	      1.31465900	     -0.21083100	      0.05828600	      1.23146500	     -0.16753900	      0.05168100	      1.23544700	     -0.27557600	      0.04060600	      1.24613900	     -0.22558300	      0.08021000	      1.07502900	     -0.23308100	      0.21474500	      0.67005100	     -0.19337900	      0.11594800	      0.58112700	     -0.32501600	      0.13800900	      0.68293700	     -0.12954700	      0.03804000	      0.63053000	     -0.36636500	      0.16525400	      0.60190800	     -0.13405300	      0.03465600	      0.54314000	     -0.37216600	      0.14830300	      0.17922700	     -0.08020800	     -0.29059800	      0.29155900	     -0.43376400	      0.14775800	      0.18675500	     -0.12251000	     -0.27771000	      0.28329400	     -0.39509700	      0.25813300	      0.04026700	     -0.15321300	     -0.33068000	      0.06848100	     -0.33509800	    -78.01115069	    486.87242612	     -9.55741784	      0.15872073	      0.00000000	     -0.17995468	      0.00000000	      0.00000000	      0.00000000	      0.57016437	      0.00000000	     -0.28964355	      0.00000000	     -0.65701758	      0.00000000	      0.00000000	      0.00000000	      0.00000000	     -0.00671926	      0.81086773	     -0.22744343	      0.00636643	      0.79768080	     -0.16673288	     -0.01577298	      0.78883106	     -0.28175965	      0.15447986	      0.45313284	     -0.18330869	     -0.03130359	      0.42183000	     -0.33801708	      0.14328168	      0.06291767	     -0.18930452	     -0.36036012	      0.18922538	     -0.33248374	      0.05094994	      0.87555480	     -0.23520416	      0.06144884	      0.88159549	     -0.13651350	      0.04045105	      0.86951405	     -0.33389482	     -0.10533287	      0.89905733	     -0.19128385	     -0.11146813	      0.89689052	     -0.24587438	      0.16936724	      0.45699215	     -0.13050270	     -0.03301760	      0.43015456	     -0.39185029	      0.14512843	      0.44627160	     -0.22672175	     -0.02493409	      0.40189451	     -0.29239982	      0.13927794	      0.06244425	     -0.15101619	     -0.36102015	      0.18924336	     -0.37097806	      0.16444805	      0.07386842	     -0.21951587	     -0.33930263	      0.18540464	     -0.30926901	     -0.03802997	      1.31465936	     -0.21083115	      0.05828625	      1.23146510	     -0.16753863	      0.05168096	      1.23544741	     -0.27557600	      0.04060604	      1.24613857	     -0.22558281	      0.08020951	      1.07502937	     -0.23308079	      0.21474454	      0.67005086	     -0.19337860	      0.11594762	      0.58112657	     -0.32501623	      0.13800940	      0.68293738	     -0.12954699	      0.03804018	      0.63052982	     -0.36636525	      0.16525438	      0.60190803	     -0.13405344	      0.03465586	      0.54313958	     -0.37216565	      0.14830309	      0.17922698	     -0.08020828	     -0.29059848	      0.29155850	     -0.43376353	      0.14775793	      0.18675463	     -0.12251047	     -0.27771002	      0.28329381	     -0.39509735	      0.25813282	      0.04026658	     -0.15321307	     -0.33068037	      0.06848091	     -0.33509848
      0.15000000	      0.04621244	      0.86159995	     -0.24149726	      4.63358112	     -3.61510490	      5.56436029	     18.91239137	      4.21069937	      2.73510306	    -24.59616294	      2.93837399	     -4.25780689	    -12.55040447	     -4.93677867	    -55.26584035	     -8.88315968	    -16.19407398	      8.02742053	     -0.35649730	      0.00000000	      0.00000000	      0.00000000	      0.00000000	      0.17950980	      0.87870815	     -0.17414058	      0.13834517	      0.85700183	     -0.37040746	      0.05716373	      0.86241985	     -0.24256501	      0.01455814	      0.92026503	     -0.22259087	      0.00303942	      0.91506839	     -0.27602328	      0.00113496	      0.81026996	     -0.16745250	     -0.01091813	      0.80100620	     -0.29818827	     -0.00489158	      0.80563808	     -0.23282038	      0.23391599	      0.48572515	     -0.13799959	      0.19166985	      0.46548580	     -0.23701478	      0.29034264	      0.67992714	     -0.23135552	      0.21756800	      0.71086659	     -0.16820490	      0.23490600	      0.62671309	     -0.16367186	      0.15337214	      0.05647228	     -0.12915687	      0.17547854	      0.06483035	     -0.19873220	      0.17755834	      0.18003311	     -0.06375493	      0.17565860	      0.18494433	     -0.10577051	      0.14779824	      0.46427838	     -0.18425789	      0.13888452	      0.06542545	     -0.17403890	      0.27557529	      0.02920813	     -0.13831927	      0.03124240	      0.43383682	     -0.43882348	      0.03677911	      0.40491729	     -0.33355316	      0.18277539	      0.57527607	     -0.37476481	      0.10614457	      0.63180217	     -0.40880519	      0.09819589	      0.54433519	     -0.41561792	     -0.35309769	      0.19075217	     -0.39111382	     -0.31859874	      0.16248886	     -0.33984236	     -0.28603452	      0.29948527	     -0.44211746	     -0.26459545	      0.27944612	     -0.41032472	     -0.01251182	      0.42333030	     -0.35513315	     -0.33835473	      0.19419070	     -0.33086418	     -0.33837518	      0.06748174	     -0.42077316	      0.07810189	      1.27810533	     -0.16446189	      0.07520429	      1.28307970	     -0.27352551	     -0.03320571	      1.31472900	     -0.21016033	      0.05982297	      1.28690268	     -0.22348302	      0.16450090	      1.14672260	     -0.23140980	      0.00278700	      0.81228600	     -0.22625500	      0.01615900	      0.79943400	     -0.16553000	     -0.00606400	      0.79034000	     -0.28052100	      0.15962000	      0.45322300	     -0.18273100	     -0.01198100	      0.42274100	     -0.33746900	      0.14362100	      0.06302800	     -0.18934400	     -0.34397700	      0.19594000	     -0.33519700	      0.06064300	      0.87719700	     -0.23419100	      0.07122200	      0.88344700	     -0.13544700	      0.05006300	      0.87094700	     -0.33293500	     -0.09561400	      0.90078300	     -0.19038300	     -0.10184700	      0.89830000	     -0.24497400	      0.17455500	      0.45678800	     -0.12991800	     -0.01331500	      0.43110300	     -0.39130700	      0.15084100	      0.44673700	     -0.22636200	     -0.00678800	      0.40322400	     -0.29030600	      0.13928400	      0.06255700	     -0.15109200	     -0.34361700	      0.19502800	     -0.37368400	      0.16454200	      0.07389400	     -0.21952600	     -0.32274600	      0.19064500	     -0.31177600	     -0.02758400	      1.31633700	     -0.21013500	      0.06867400	      1.23306200	     -0.16720300	      0.06169200	      1.23711500	     -0.27524400	      0.05083200	      1.24773400	     -0.22520600	      0.09014200	      1.07663200	     -0.23292300	      0.22289500	      0.66956800	     -0.19242200	      0.13103600	      0.58484700	     -0.32277200	      0.14602700	      0.68339000	     -0.12906700	      0.05267400	      0.63256900	     -0.36481900	      0.17236400	      0.60210400	     -0.13352200	      0.05090300	      0.54521100	     -0.37023900	      0.14915400	      0.17920400	     -0.08021600	     -0.27029800	      0.29423700	     -0.43657500	      0.14838900	      0.18694200	     -0.12255900	     -0.25795000	      0.28626700	     -0.39802400	      0.25802500	      0.04028800	     -0.15329700	     -0.31489100	      0.07361100	     -0.34030100	    -70.37167834	    480.28626737	     -9.15331043	      0.15761572	      0.00000000	     -0.18024417	      0.00000000	      0.00000000	      0.00000000	      0.57460577	      0.00000000	     -0.28912869	      0.00000000	     -0.62627600	      0.00000000	      0.00000000	      0.00000000	      0.00000000	      0.00278670	      0.81228554	     -0.22625479	      0.01615902	      0.79943359	     -0.16552959	     -0.00606382	      0.79033995	     -0.28052121	      0.15961972	      0.45322290	     -0.18273106	     -0.01198123	      0.42274097	     -0.33746925	      0.14362079	      0.06302761	     -0.18934418	     -0.34397739	      0.19594032	     -0.33519676	      0.06064271	      0.87719691	     -0.23419127	      0.07122201	      0.88344651	     -0.13544740	      0.05006340	      0.87094736	     -0.33293515	     -0.09561410	      0.90078300	     -0.19038334	     -0.10184711	      0.89830047	     -0.24497366	      0.17455545	      0.45678788	     -0.12991804	     -0.01331496	      0.43110296	     -0.39130741	      0.15084128	      0.44673672	     -0.22636220	     -0.00678833	      0.40322393	     -0.29030561	      0.13928378	      0.06255713	     -0.15109213	     -0.34361747	      0.19502780	     -0.37368429	      0.16454209	      0.07389428	     -0.21952608	     -0.32274586	      0.19064462	     -0.31177574	     -0.02758363	      1.31633711	     -0.21013470	      0.06867392	      1.23306203	     -0.16720335	      0.06169231	      1.23711514	     -0.27524370	      0.05083163	      1.24773359	     -0.22520597	      0.09014214	      1.07663238	     -0.23292336	      0.22289491	      0.66956842	     -0.19242182	      0.13103637	      0.58484685	     -0.32277167	      0.14602698	      0.68339014	     -0.12906738	      0.05267382	      0.63256931	     -0.36481881	      0.17236412	      0.60210383	     -0.13352203	      0.05090309	      0.54521149	     -0.37023884	      0.14915399	      0.17920400	     -0.08021569	     -0.27029812	      0.29423702	     -0.43657523	      0.14838852	      0.18694194	     -0.12255910	     -0.25795043	      0.28626710	     -0.39802355	      0.25802505	      0.04028810	     -0.15329681	     -0.31489053	      0.07361086	     -0.34030128
